<svg width="238" height="201" viewBox="0 0 238 201" fill="none" xmlns="http://www.w3.org/2000/svg">
<g opacity="0.6">
<path d="M99.5951 31.4212C105.38 25.6366 105.38 16.2579 99.5952 10.4733C93.8106 4.68873 84.4319 4.68874 78.6473 10.4733C72.8627 16.2579 72.8627 25.6366 78.6473 31.4212C84.4319 37.2058 93.8106 37.2058 99.5951 31.4212Z" fill="#FABA23"/>
<path d="M100.273 25.8301C97.573 31.9836 90.394 34.7877 84.2405 32.1004C83.5914 31.8148 82.9942 31.4903 82.423 31.1138C81.4623 30.4777 80.6185 29.7247 79.8915 28.8809C79.6189 28.5563 79.3592 28.2318 79.1255 27.8813C77.3729 25.3498 76.62 22.2081 77.1003 19.0924C77.2561 18.0668 77.5547 17.0542 77.9831 16.0676C79.9953 11.4719 84.5001 8.7457 89.2126 8.77167C90.8223 8.78465 92.4451 9.1092 94.0159 9.79725C95.3661 10.3944 96.5604 11.1993 97.573 12.173C97.8716 12.4716 98.1702 12.7701 98.4298 13.0947C99.1568 13.9645 99.767 14.9252 100.221 15.9507C101.584 18.9756 101.701 22.5456 100.273 25.8301Z" fill="#FAD332"/>
<path d="M63.6295 96.554C73.0469 94.0246 78.6308 84.3398 76.1014 74.9223C73.572 65.5049 63.8872 59.921 54.4697 62.4504C45.0523 64.9798 39.4684 74.6646 41.9978 84.082C44.5272 93.4995 54.212 99.0833 63.6295 96.554Z" fill="#FABA23"/>
<path d="M72.323 85.3143C69.1165 92.6492 60.5613 95.9986 53.2264 92.779C52.4605 92.4415 51.7335 92.052 51.0584 91.6106C49.916 90.8577 48.9034 89.9619 48.0336 88.9623C47.709 88.5858 47.3975 88.1834 47.1119 87.7679C45.0218 84.7561 44.126 81.0043 44.6972 77.2914C44.879 76.0711 45.2295 74.8638 45.7487 73.6824C48.1504 68.217 53.512 64.9585 59.1203 64.9974C61.0286 65.0104 62.9759 65.3999 64.8453 66.2177C66.4551 66.9188 67.8832 67.8924 69.0775 69.0478C69.441 69.3983 69.7785 69.7618 70.1031 70.1383C70.9729 71.1769 71.6999 72.3193 72.2451 73.5396C73.8938 77.1486 74.0367 81.4067 72.323 85.3143Z" fill="#FAD332"/>
<path d="M191.083 106.255C199.487 101.309 202.29 90.4874 197.344 82.0841C192.398 73.6807 181.577 70.8777 173.174 75.8234C164.77 80.7691 161.967 91.5906 166.913 99.9939C171.859 108.397 182.68 111.2 191.083 106.255Z" fill="#FABA23"/>
<path d="M195.419 96.868C192.212 104.203 183.657 107.552 176.322 104.333C175.556 103.995 174.829 103.606 174.154 103.164C173.012 102.411 171.999 101.516 171.13 100.516C170.805 100.14 170.493 99.7371 170.208 99.3217C168.118 96.3098 167.222 92.558 167.793 88.8451C167.975 87.6248 168.325 86.4175 168.845 85.2361C171.246 79.7707 176.608 76.5122 182.216 76.5511C184.125 76.5641 186.072 76.9536 187.941 77.7714C189.551 78.4725 190.979 79.4461 192.173 80.6015C192.537 80.952 192.874 81.3155 193.199 81.692C194.069 82.7306 194.796 83.873 195.341 85.0933C196.977 88.7023 197.133 92.9475 195.419 96.868Z" fill="#FAD332"/>
<path d="M180.567 106.047C178.997 105.722 178.698 105.852 177.841 107.176C178.179 105.631 178.049 105.32 176.712 104.45C178.282 104.774 178.581 104.644 179.438 103.32C179.113 104.891 179.243 105.19 180.567 106.047Z" fill="white"/>
<path d="M149.125 52.1586L139.116 78.8757L107.621 162.896L104.363 171.594L94.9507 168.114L42.7368 148.784L66.8964 84.5099L79.2034 51.7951L79.3462 51.4057L114.203 39.2285L149.125 52.1586Z" fill="#3F964F"/>
<path d="M102.662 46.7451L126.302 55.495C124.186 61.2201 127.107 67.5813 132.832 69.7104L103.428 147.655C97.7028 145.539 91.3286 148.46 89.2125 154.185L65.5722 145.435C67.6883 139.71 64.7673 133.348 59.0422 131.219L88.4466 53.2751C94.1717 55.4041 100.546 52.4832 102.662 46.7451Z" fill="#4EAD60"/>
<path d="M102.896 79.9392C112.412 83.4573 117.267 94.0247 113.736 103.528C110.205 113.03 99.6502 117.899 90.1474 114.368C80.6315 110.849 75.7762 100.282 79.3073 90.7792C82.8385 81.2763 93.3929 76.408 102.896 79.9392Z" fill="#3F964F"/>
<path d="M114.203 39.2275L100.338 64.3218L79.2033 51.7942L78.8398 51.5864L79.3461 51.4047L114.203 39.2275Z" fill="#3F964F"/>
<path opacity="0.2" d="M76.1008 60.1813L100.338 64.3226L79.2036 51.7949L76.1008 60.1813Z" fill="#193F1E"/>
<path opacity="0.2" d="M114.203 39.2275L100.338 64.3218L116.527 40.0844L114.203 39.2275Z" fill="#193F1E"/>
<path opacity="0.2" d="M139.116 78.876L107.621 162.896L94.9506 168.115L42.7368 148.784L66.8964 84.5232H78.0999C82.3321 84.5232 85.9281 91.0791 87.2782 100.218L139.116 78.876Z" fill="#193F1E"/>
<path d="M166.855 71.31L24.9856 129.718L49.9984 190.473L191.868 132.065L166.855 71.31Z" fill="#3F964F"/>
<path d="M164.34 94.2473L173.934 117.55C168.286 119.874 165.586 126.339 167.91 131.986L66.9614 173.555C64.6376 167.907 58.1726 165.207 52.5254 167.531L42.9316 144.228C48.5788 141.904 51.2791 135.439 48.9553 129.792L149.917 88.2236C152.228 93.8708 158.693 96.5711 164.34 94.2473Z" fill="#4EAD60"/>
<path d="M124.459 122.912C128.315 132.285 123.849 143.022 114.476 146.877C105.103 150.733 94.3666 146.267 90.5109 136.894C86.6552 127.521 91.1211 116.785 100.494 112.929C109.867 109.061 120.603 113.539 124.459 122.912Z" fill="#3F964F"/>
<path d="M85.1753 112.862V177.578H19.4731V112.862H65.7152C65.7672 99.9193 70.1032 89.4688 75.4518 89.4688C80.7874 89.4688 85.1234 99.9193 85.1753 112.862Z" fill="#3F964F"/>
<path d="M75.4388 89.5596H29.2097V162.311H75.4388V89.5596Z" fill="#4EAD60"/>
<path d="M68.726 130.396C68.8821 121.341 61.6684 113.875 52.6139 113.719C43.5593 113.563 36.0927 120.776 35.9366 129.831C35.7806 138.885 42.9942 146.352 52.0487 146.508C61.1033 146.664 68.5699 139.451 68.726 130.396Z" fill="#3F964F"/>
<path opacity="0.2" d="M85.1753 112.862V119.496H19.4731V89.4688H75.4388C80.7874 89.4688 85.1234 99.9193 85.1753 112.862Z" fill="#193F1E"/>
<path d="M75.4387 89.4697C70.0901 89.4697 65.7541 99.9333 65.7022 112.863H0C0.0519282 99.9203 4.38793 89.4697 9.73654 89.4697H75.4387Z" fill="#3F964F"/>
<path d="M63.5731 89.4688C61.2103 89.4688 59.1332 91.6108 57.9259 94.8563C54.3039 94.9472 51.3959 97.7253 51.3959 101.153V101.166H18.1748V101.153C18.1748 98.0109 15.7212 95.4015 12.5146 94.9342C13.709 91.6497 15.7991 89.4688 18.1878 89.4688H63.5731Z" fill="#4EAD60"/>
<path d="M159.69 132.275C170.368 129.272 176.59 118.182 173.588 107.504C170.585 96.8261 159.495 90.6039 148.817 93.6064C138.139 96.609 131.917 107.699 134.919 118.377C137.922 129.055 149.012 135.277 159.69 132.275Z" fill="#FABA23"/>
<path d="M169.351 119.56C165.69 127.907 155.966 131.711 147.619 128.05C146.749 127.674 145.931 127.219 145.152 126.713C143.854 125.856 142.699 124.844 141.712 123.688C141.336 123.26 140.985 122.805 140.674 122.338C138.298 118.911 137.272 114.64 137.921 110.42C138.129 109.031 138.531 107.655 139.116 106.318C141.842 100.1 147.943 96.3998 154.331 96.4388C156.512 96.4518 158.719 96.8932 160.848 97.8279C162.678 98.6328 164.301 99.7362 165.664 101.047C166.079 101.45 166.469 101.865 166.832 102.294C167.832 103.475 168.637 104.773 169.273 106.162C171.129 110.265 171.298 115.107 169.351 119.56Z" fill="#FAD332"/>
<path d="M165.664 101.035L140.674 122.339C138.298 118.912 137.272 114.641 137.921 110.421L154.331 96.4268C156.512 96.4397 158.719 96.8811 160.848 97.8158C162.691 98.6337 164.301 99.7242 165.664 101.035Z" fill="#FAEE6C"/>
<path d="M169.273 106.163L145.152 126.713C143.854 125.857 142.699 124.844 141.712 123.689L166.832 102.281C167.832 103.463 168.65 104.774 169.273 106.163Z" fill="#FAEE6C"/>
<path d="M146.477 96.089C144.971 97.9065 144.932 98.3868 146.074 100.412C144.296 98.919 143.802 98.8671 141.751 100.01C143.257 98.1921 143.296 97.7117 142.154 95.6865C143.971 97.1924 144.451 97.2314 146.477 96.089Z" fill="white"/>
<path d="M174.557 109.007C174.557 109.007 177.075 121.807 172.103 133.919C166.729 134.828 165.755 133.296 165.755 133.296L165.937 114.524L174.557 109.007Z" fill="#D15F0A"/>
<path d="M154.772 144.993L164.522 134.556C164.522 134.556 166.936 130.415 172.09 133.907C171.584 137.035 166.807 142.319 159.459 147.85C156.875 147.616 154.772 144.993 154.772 144.993Z" fill="#D15F0A"/>
<path d="M165.145 103.582L163.925 106.23L169.896 109.735L172.947 107.398L172.869 103.361L166.365 100.985L165.145 103.582Z" fill="#F37A50"/>
<path d="M189.175 183.083C186.111 186.861 179.438 183.408 179.373 188.73C190.006 189.237 194.432 189.548 194.432 189.548C194.484 188.328 194.432 185.42 194.251 184.277L189.175 183.083Z" fill="#201D40"/>
<path d="M229.601 177.916C229.497 182.771 222.188 184.887 225.421 189.132C234.132 183.005 238 179.954 238 179.954C237.286 178.954 235.287 176.176 234.443 175.371L229.601 177.916Z" fill="#201D40"/>
<path d="M195.484 121.508L209.933 128.155C209.933 128.155 199.612 150.406 193.368 157.455C192.277 158.688 185.605 157.221 185.059 155.845C183.073 150.834 195.484 121.508 195.484 121.508Z" fill="#0063F5"/>
<path d="M194.277 154.626C197.431 164.18 195.64 184.809 195.64 184.809C195.64 184.809 190.603 184.29 187.188 183.238C186.202 166.608 184.592 159.053 184.917 152.951C186.669 149.134 192.018 149.368 194.277 154.626Z" fill="#0063F5"/>
<path d="M198.768 124.676L215.385 119.704C215.385 119.704 217.54 147.018 215.97 156.301C215.697 157.91 209.868 160.039 208.674 159.157C204.338 155.976 198.768 124.676 198.768 124.676Z" fill="#0150C6"/>
<path d="M215.061 152.73C223.603 157.144 234.988 175.604 234.988 175.604C234.988 175.604 231.782 177.5 228.484 178.889C215.996 167.75 212.633 163.103 208.674 159.169C205.61 155.119 209.946 150.147 215.061 152.73Z" fill="#0150C6"/>
<path d="M176.231 98.3889C176.231 98.3889 173.025 101.284 172.142 103.127C171.623 109.411 169.013 109.086 169.013 109.086C167.624 110.579 165.95 114.526 165.95 114.526C172.506 119.056 190.07 135.998 190.07 135.998C190.07 135.998 203.039 133.012 207.557 129.52C213.75 124.717 215.398 119.705 215.398 119.705C209.959 112.358 203.87 107.593 193.718 100.985C189.824 98.4668 179.763 95.8185 176.231 98.3889Z" fill="#FF6D00"/>
<path d="M164.249 94.0389C168.364 98.0114 169.182 103.84 166.067 107.073C162.951 110.305 157.083 109.708 152.968 105.749C148.852 101.776 148.035 95.9473 151.15 92.7148C154.266 89.4822 160.134 90.0794 164.249 94.0389Z" fill="#F37A50"/>
<path d="M157.914 102.866C158.29 104.151 158.719 105.761 158.719 105.761C158.719 105.761 159.887 106.255 160.965 105.086C160.315 105.398 159.537 105.592 159.043 104.788C158.563 103.983 157.914 102.866 157.914 102.866Z" fill="#DE623C"/>
<path d="M161.666 89.8586C157.602 86.2626 153.227 89.2095 153.227 89.2095C153.227 89.2095 153.578 88.0801 152.098 87.3271C152.02 88.2489 151.63 89.1446 151.02 89.8327C146.866 94.4413 145.386 98.1672 147.697 99.1148C148.515 99.4524 146.503 102.932 152.163 104.892C151.851 104.191 150.008 102.412 150.267 101.114C150.527 99.8159 151.695 101.555 153.071 99.1798C154.448 96.7781 154.59 94.662 156.654 93.6884C158.394 92.9873 164.885 95.2722 165.184 95.6097C164.483 94.8308 163.457 91.4425 161.666 89.8586Z" fill="#201D40"/>
<path d="M155.434 107.619C155.434 107.619 158.225 109.021 159.29 108.969C158.303 108.06 160.705 106.217 161.549 105.269C163.068 103.542 162.808 100.466 165.69 101.634C167.56 99.3881 163.016 94.7275 163.016 94.7275C169.247 97.0903 171.104 102.439 167.443 108.514C165.015 112.526 158.706 111.072 155.434 107.619Z" fill="#201D40"/>
<path d="M159.602 100.011C159.887 99.6731 159.835 99.1798 159.511 98.9072C159.173 98.6216 158.68 98.6735 158.407 98.9981C158.122 99.3356 158.174 99.8289 158.498 100.102C158.823 100.374 159.316 100.335 159.602 100.011Z" fill="black"/>
<path d="M155.551 105.1C155.837 104.762 155.785 104.269 155.46 103.996C155.123 103.71 154.629 103.762 154.357 104.087C154.071 104.424 154.123 104.918 154.448 105.19C154.772 105.463 155.265 105.424 155.551 105.1Z" fill="black"/>
<path d="M153.448 105.178C153.539 105.074 153.565 104.931 153.513 104.801C153.383 104.425 153.383 104.113 153.513 103.866C153.747 103.425 154.292 103.269 154.305 103.269C154.513 103.217 154.629 102.997 154.577 102.789C154.526 102.581 154.305 102.464 154.097 102.516C154.058 102.529 153.214 102.75 152.825 103.49C152.578 103.944 152.565 104.476 152.773 105.061C152.838 105.268 153.072 105.372 153.266 105.307C153.357 105.268 153.409 105.229 153.448 105.178Z" fill="#201D40"/>
<path d="M159.64 97.829C159.692 97.7641 159.731 97.6862 159.731 97.5823C159.731 97.3616 159.562 97.1929 159.355 97.1799C158.537 97.1539 157.901 97.3616 157.472 97.803C156.914 98.3613 156.94 99.0882 156.94 99.1142C156.953 99.3349 157.135 99.5037 157.343 99.4907C157.563 99.4777 157.719 99.3089 157.719 99.0883C157.719 99.0753 157.719 98.6599 158.031 98.3483C158.303 98.0757 158.732 97.9458 159.329 97.9718C159.446 97.9718 159.562 97.9199 159.64 97.829Z" fill="#201D40"/>
<path d="M163.068 94.6877C163.236 96.0249 164.262 96.9855 165.352 96.8557C166.443 96.7129 167.196 95.5186 167.027 94.1944C166.858 92.8573 165.833 91.8966 164.742 92.0264C163.652 92.1562 162.899 93.3506 163.068 94.6877Z" fill="#F37A50"/>
<path d="M165.794 95.597C165.755 95.623 165.716 95.636 165.664 95.636C164.989 95.7139 164.444 95.4283 164.21 94.896C163.963 94.3378 164.106 93.6627 164.548 93.2862C164.664 93.1824 164.859 93.1954 164.963 93.3122C165.067 93.429 165.054 93.6238 164.937 93.7276C164.703 93.9353 164.625 94.3378 164.755 94.6494C164.885 94.9479 165.184 95.0908 165.612 95.0388C165.768 95.0258 165.924 95.1427 165.937 95.2985C165.95 95.4283 165.885 95.5451 165.794 95.597Z" fill="#DE623C"/>
<path d="M163.756 103.737C163.613 103.594 163.431 103.516 163.327 103.698C163.068 104.152 162.639 104.892 162.159 105.554C161.679 106.216 161.107 106.865 160.757 107.242C160.614 107.398 160.744 107.541 160.926 107.631C161.692 107.982 163.003 107.774 163.743 106.762C164.483 105.749 164.301 104.282 163.756 103.737Z" fill="white"/>
<path d="M131.443 184.147V187.847C131.443 189.288 130.275 190.47 128.821 190.47H83.6954C82.2544 190.47 81.073 189.301 81.073 187.847V184.147C81.073 183.498 81.3067 182.914 81.6961 182.46C82.1765 181.889 82.8905 181.538 83.6954 181.538H128.821C129.626 181.538 130.34 181.902 130.82 182.46C131.21 182.914 131.443 183.498 131.443 184.147Z" fill="#FAD332"/>
<path d="M84.8898 181.524H83.5786V190.456H84.8898V181.524Z" fill="#FABA23"/>
<path d="M90.3812 181.524H89.0701V190.456H90.3812V181.524Z" fill="#FABA23"/>
<path d="M95.8857 181.524H94.5745V190.456H95.8857V181.524Z" fill="#FABA23"/>
<path d="M101.377 181.524H100.066V190.456H101.377V181.524Z" fill="#FABA23"/>
<path d="M106.881 181.524H105.57V190.456H106.881V181.524Z" fill="#FABA23"/>
<path d="M112.373 181.524H111.062V190.456H112.373V181.524Z" fill="#FABA23"/>
<path d="M117.877 181.524H116.566V190.456H117.877V181.524Z" fill="#FABA23"/>
<path d="M123.369 181.524H122.057V190.456H123.369V181.524Z" fill="#FABA23"/>
<path d="M128.86 181.524H127.549V190.456H128.86V181.524Z" fill="#FABA23"/>
<path d="M130.82 182.446H81.696C82.1764 181.875 82.8904 181.524 83.6953 181.524H128.821C129.626 181.524 130.34 181.888 130.82 182.446Z" fill="#FABA23"/>
<path d="M130.82 189.521H81.696C82.1764 190.093 82.8904 190.443 83.6953 190.443H128.821C129.626 190.456 130.34 190.093 130.82 189.521Z" fill="#FABA23"/>
<path d="M134.598 175.217V178.917C134.598 180.358 133.43 181.539 131.976 181.539H86.8499C85.4089 181.539 84.2275 180.371 84.2275 178.917V175.217C84.2275 174.568 84.4612 173.984 84.8507 173.529C85.331 172.958 86.045 172.607 86.8499 172.607H131.976C132.78 172.607 133.494 172.971 133.975 173.529C134.364 173.984 134.598 174.568 134.598 175.217Z" fill="#FAD332"/>
<path d="M88.0443 172.593H86.7332V181.524H88.0443V172.593Z" fill="#FABA23"/>
<path d="M93.5355 172.593H92.2244V181.524H93.5355V172.593Z" fill="#FABA23"/>
<path d="M99.04 172.593H97.7288V181.524H99.04V172.593Z" fill="#FABA23"/>
<path d="M104.531 172.593H103.22V181.524H104.531V172.593Z" fill="#FABA23"/>
<path d="M110.036 172.593H108.725V181.524H110.036V172.593Z" fill="#FABA23"/>
<path d="M115.527 172.593H114.216V181.524H115.527V172.593Z" fill="#FABA23"/>
<path d="M121.032 172.593H119.72V181.524H121.032V172.593Z" fill="#FABA23"/>
<path d="M126.523 172.593H125.212V181.524H126.523V172.593Z" fill="#FABA23"/>
<path d="M132.027 172.593H130.716V181.524H132.027V172.593Z" fill="#FABA23"/>
<path d="M133.975 173.528H84.8506C85.3309 172.956 86.0449 172.606 86.8498 172.606H131.975C132.78 172.593 133.494 172.956 133.975 173.528Z" fill="#FABA23"/>
<path d="M133.975 180.603H84.8506C85.3309 181.174 86.0449 181.524 86.8498 181.524H131.975C132.78 181.524 133.494 181.161 133.975 180.603Z" fill="#FABA23"/>
<path d="M175.668 182.167C185.914 171.921 185.914 155.309 175.668 145.063C165.422 134.817 148.81 134.817 138.564 145.063C128.318 155.309 128.318 171.921 138.564 182.167C148.81 192.413 165.422 192.413 175.668 182.167Z" fill="#FABA23"/>
<path d="M177.633 170.243C173.973 181.577 161.821 187.782 150.501 184.134C149.32 183.758 148.19 183.277 147.126 182.719C145.321 181.785 143.698 180.603 142.27 179.24C141.725 178.721 141.219 178.189 140.738 177.617C137.207 173.476 135.312 168.062 135.598 162.493C135.688 160.663 136.026 158.819 136.61 157.002C139.336 148.55 146.788 142.942 155.097 142.163C157.927 141.891 160.861 142.189 163.743 143.111C166.235 143.916 168.481 145.136 170.428 146.655C171.013 147.109 171.584 147.603 172.116 148.122C173.557 149.524 174.79 151.108 175.79 152.835C178.737 157.924 179.581 164.194 177.633 170.243Z" fill="#FAD332"/>
<path d="M170.428 146.655L140.725 177.617C137.194 173.476 135.299 168.062 135.584 162.493L155.096 142.163C157.926 141.891 160.86 142.189 163.742 143.111C166.248 143.903 168.494 145.123 170.428 146.655Z" fill="#FAEE6C"/>
<path d="M175.79 152.835L147.126 182.707C145.321 181.772 143.698 180.59 142.27 179.227L172.116 148.109C173.557 149.524 174.79 151.108 175.79 152.835Z" fill="#FAEE6C"/>
<path d="M158.576 143.124C156.031 142.851 155.564 143.111 154.421 145.37C154.707 142.851 154.46 142.384 152.176 141.216C154.72 141.488 155.187 141.229 156.33 138.97C156.057 141.514 156.317 141.982 158.576 143.124Z" fill="white"/>
<path d="M149.566 183.616C147.411 183.395 147.022 183.603 146.061 185.511C146.295 183.382 146.087 182.992 144.166 182.006C146.321 182.226 146.71 182.019 147.671 180.11C147.437 182.252 147.658 182.642 149.566 183.616Z" fill="white"/>
<path d="M166.508 145.863C168.066 144.967 170.286 143.396 169.766 142.63C168.935 141.384 167.884 142.267 167.144 141.41C166.495 140.657 168.663 139.099 172.739 140.618L173.194 140.073L176.478 142.318L175.946 142.786C175.712 145.759 171.675 149.718 167.871 150.212C164.028 150.718 164.431 147.057 166.508 145.863Z" fill="#F37A50"/>
<path d="M179.451 97.3881C186.396 98.3747 188.512 106.813 190.836 122.859C185.669 127.221 182.566 124.43 182.566 124.43C182.566 124.43 176.854 114.07 175.193 110.409C171.181 101.646 176.101 96.9207 179.451 97.3881Z" fill="#D15F0A"/>
<path d="M172.454 139.879L181.489 124.911C181.489 124.911 183.41 120.743 190.823 122.872C191.433 126.741 188.876 133.803 176.517 143.202C174.596 142.774 172.454 139.879 172.454 139.879Z" fill="#D15F0A"/>
</g>
</svg>
